<svg
	xmlns="http://www.w3.org/2000/svg"
	xmlns:xlink="http://www.w3.org/1999/xlink" version="1.2">
	<g id="65e00b8d89">
		<g clip-rule="nonzero" clip-path="url(#92287b18c0)">
			<path style=" stroke:none;fill-rule:nonzero;fill:#003f5c;fill-opacity:1;" d="M 87.417969 252.128906 C 72.914062 252.445312 59.992188 248.789062 48.078125 240.136719 C 50.738281 236.953125 53.179688 233.839844 55.882812 230.980469 C 56.328125 230.511719 58.105469 230.835938 58.980469 231.3125 C 67.660156 236.027344 76.800781 239.238281 86.761719 238.890625 C 98.109375 238.5 108.375 234.636719 117.363281 227.671875 C 128.042969 219.398438 134.453125 208.347656 136.199219 195.109375 C 138.113281 180.578125 134.824219 167.136719 125.214844 155.554688 C 114.398438 142.519531 100.367188 136.132812 83.726562 136.699219 C 70.355469 137.15625 58.621094 142.515625 49.132812 152.378906 C 37.558594 164.410156 33.441406 178.832031 35.066406 195.714844 C 31.109375 195.714844 27.371094 195.84375 23.660156 195.601562 C 22.941406 195.554688 21.839844 194.128906 21.722656 193.230469 C 19.523438 176.285156 24.65625 161.328125 34.78125 148.007812 C 44.011719 135.867188 56.378906 128.171875 71.222656 124.898438 C 90.941406 120.546875 109.167969 124.351562 125.222656 136.707031 C 139.691406 147.835938 147.671875 162.722656 149.75 180.925781 C 152.273438 203.070312 144.558594 221.320312 128.558594 236.074219 C 119.207031 244.699219 107.886719 250.03125 95 251.433594 C 92.59375 251.695312 90.179688 251.898438 87.417969 252.128906 Z M 87.417969 252.128906 "/>
		</g>
		<path style=" stroke:none;fill-rule:nonzero;fill:#003f5c;fill-opacity:1;" d="M 98.699219 201.925781 C 95.757812 205.335938 93.03125 208.589844 90.152344 211.707031 C 87.902344 214.144531 85.585938 213.871094 83.1875 211.660156 C 77.761719 206.660156 72.242188 201.761719 66.558594 196.644531 C 63.035156 200.433594 59.710938 203.953125 56.449219 207.527344 C 52.28125 212.09375 48.15625 216.695312 44.035156 221.296875 C 42.242188 223.296875 40.328125 223.433594 38.285156 221.761719 C 36.882812 220.613281 35.609375 219.292969 34.144531 218.242188 C 32.191406 216.847656 32.175781 215.355469 33.570312 213.644531 C 36.09375 210.550781 38.582031 207.425781 41.1875 204.398438 C 46.164062 198.617188 51.210938 192.890625 56.238281 187.148438 C 58.15625 184.957031 60.03125 182.722656 62.054688 180.628906 C 65.066406 177.511719 66.425781 177.578125 69.664062 180.542969 C 74.945312 185.375 80.265625 190.160156 86.042969 195.398438 C 92.328125 188.410156 98.425781 181.625 104.871094 174.453125 C 102.894531 173.5625 101.328125 173.152344 100.148438 172.242188 C 99.128906 171.453125 97.820312 169.980469 97.96875 169.015625 C 98.148438 167.832031 99.554688 166.183594 100.707031 165.914062 C 107.78125 164.261719 114.910156 162.804688 122.070312 161.589844 C 124.980469 161.097656 126.382812 163.179688 126.164062 165.871094 C 125.59375 172.863281 124.925781 179.855469 123.996094 186.808594 C 123.820312 188.152344 122.328125 190.257812 121.347656 190.316406 C 120.113281 190.386719 118.625 188.859375 117.542969 187.734375 C 116.664062 186.824219 116.21875 185.488281 115.265625 183.773438 C 109.582031 189.980469 104.210938 195.84375 98.699219 201.925781 Z M 98.699219 201.925781 "/>
		<g style="fill:#003f5c;fill-opacity:1;">
			<g transform="translate(169.599255, 216.150966)">
				<path style="stroke:none" d="M 18.59375 0 C 18.125 0 17.734375 -0.148438 17.421875 -0.453125 C 17.117188 -0.765625 16.96875 -1.15625 16.96875 -1.625 L 16.96875 -43.203125 L 3.390625 -43.203125 C 2.921875 -43.203125 2.53125 -43.351562 2.21875 -43.65625 C 1.914062 -43.96875 1.765625 -44.359375 1.765625 -44.828125 L 1.765625 -47.8125 C 1.765625 -48.320312 1.914062 -48.726562 2.21875 -49.03125 C 2.53125 -49.34375 2.921875 -49.5 3.390625 -49.5 L 37.484375 -49.5 C 38.003906 -49.5 38.414062 -49.34375 38.71875 -49.03125 C 39.019531 -48.726562 39.171875 -48.320312 39.171875 -47.8125 L 39.171875 -44.828125 C 39.171875 -44.359375 39.019531 -43.96875 38.71875 -43.65625 C 38.414062 -43.351562 38.003906 -43.203125 37.484375 -43.203125 L 23.96875 -43.203125 L 23.96875 -1.625 C 23.96875 -1.15625 23.8125 -0.765625 23.5 -0.453125 C 23.195312 -0.148438 22.789062 0 22.28125 0 Z M 18.59375 0 "/>
			</g>
		</g>
		<g style="fill:#003f5c;fill-opacity:1;">
			<g transform="translate(216.83833, 216.150966)">
				<path style="stroke:none" d="M 7.78125 0 C 7.257812 0 6.859375 -0.148438 6.578125 -0.453125 C 6.296875 -0.765625 6.15625 -1.15625 6.15625 -1.625 L 6.15625 -47.8125 C 6.15625 -48.320312 6.296875 -48.726562 6.578125 -49.03125 C 6.859375 -49.34375 7.257812 -49.5 7.78125 -49.5 L 25.03125 -49.5 C 30.363281 -49.5 34.582031 -48.25 37.6875 -45.75 C 40.800781 -43.25 42.359375 -39.550781 42.359375 -34.65625 C 42.359375 -31.019531 41.453125 -28.054688 39.640625 -25.765625 C 37.828125 -23.484375 35.363281 -21.894531 32.25 -21 L 43.140625 -2.1875 C 43.273438 -1.90625 43.34375 -1.648438 43.34375 -1.421875 C 43.34375 -1.035156 43.191406 -0.703125 42.890625 -0.421875 C 42.585938 -0.140625 42.242188 0 41.859375 0 L 38.46875 0 C 37.664062 0 37.078125 -0.207031 36.703125 -0.625 C 36.328125 -1.050781 36 -1.476562 35.71875 -1.90625 L 25.453125 -19.875 L 13.078125 -19.875 L 13.078125 -1.625 C 13.078125 -1.15625 12.921875 -0.765625 12.609375 -0.453125 C 12.304688 -0.148438 11.898438 0 11.390625 0 Z M 13.078125 -25.890625 L 24.75 -25.890625 C 28.289062 -25.890625 30.929688 -26.628906 32.671875 -28.109375 C 34.410156 -29.597656 35.28125 -31.800781 35.28125 -34.71875 C 35.28125 -37.59375 34.421875 -39.785156 32.703125 -41.296875 C 30.984375 -42.804688 28.332031 -43.5625 24.75 -43.5625 L 13.078125 -43.5625 Z M 13.078125 -25.890625 "/>
			</g>
		</g>
		<g style="fill:#003f5c;fill-opacity:1;">
			<g transform="translate(269.451843, 216.150966)">
				<path style="stroke:none" d="M 2.828125 0 C 2.453125 0 2.125 -0.140625 1.84375 -0.421875 C 1.5625 -0.703125 1.421875 -1.035156 1.421875 -1.421875 C 1.421875 -1.648438 1.441406 -1.90625 1.484375 -2.1875 L 19.015625 -47.953125 C 19.210938 -48.421875 19.472656 -48.796875 19.796875 -49.078125 C 20.128906 -49.359375 20.625 -49.5 21.28125 -49.5 L 26.09375 -49.5 C 26.75 -49.5 27.242188 -49.359375 27.578125 -49.078125 C 27.910156 -48.796875 28.171875 -48.421875 28.359375 -47.953125 L 45.828125 -2.1875 C 45.921875 -1.90625 45.96875 -1.648438 45.96875 -1.421875 C 45.96875 -1.035156 45.828125 -0.703125 45.546875 -0.421875 C 45.265625 -0.140625 44.929688 0 44.546875 0 L 40.953125 0 C 40.378906 0 39.960938 -0.140625 39.703125 -0.421875 C 39.441406 -0.703125 39.265625 -0.960938 39.171875 -1.203125 L 35.28125 -11.25 L 12.09375 -11.25 L 8.203125 -1.203125 C 8.148438 -0.960938 7.984375 -0.703125 7.703125 -0.421875 C 7.421875 -0.140625 7 0 6.4375 0 Z M 14.140625 -17.328125 L 33.234375 -17.328125 L 23.6875 -42.4375 Z M 14.140625 -17.328125 "/>
			</g>
		</g>
		<g style="fill:#003f5c;fill-opacity:1;">
			<g transform="translate(323.126103, 216.150966)">
				<path style="stroke:none" d="M 23.96875 0.703125 C 19.632812 0.703125 16.039062 -0.0976562 13.1875 -1.703125 C 10.332031 -3.304688 8.175781 -5.546875 6.71875 -8.421875 C 5.257812 -11.296875 4.457031 -14.640625 4.3125 -18.453125 C 4.269531 -20.390625 4.25 -22.460938 4.25 -24.671875 C 4.25 -26.890625 4.269531 -29.015625 4.3125 -31.046875 C 4.457031 -34.867188 5.257812 -38.21875 6.71875 -41.09375 C 8.175781 -43.96875 10.332031 -46.203125 13.1875 -47.796875 C 16.039062 -49.398438 19.632812 -50.203125 23.96875 -50.203125 C 27.226562 -50.203125 30.082031 -49.753906 32.53125 -48.859375 C 34.976562 -47.960938 37.015625 -46.757812 38.640625 -45.25 C 40.273438 -43.75 41.515625 -42.066406 42.359375 -40.203125 C 43.210938 -38.335938 43.6875 -36.414062 43.78125 -34.4375 C 43.820312 -34.007812 43.6875 -33.65625 43.375 -33.375 C 43.070312 -33.09375 42.710938 -32.953125 42.296875 -32.953125 L 38.40625 -32.953125 C 37.976562 -32.953125 37.609375 -33.066406 37.296875 -33.296875 C 36.992188 -33.535156 36.769531 -33.960938 36.625 -34.578125 C 35.832031 -38.253906 34.335938 -40.773438 32.140625 -42.140625 C 29.953125 -43.515625 27.226562 -44.203125 23.96875 -44.203125 C 20.15625 -44.203125 17.140625 -43.128906 14.921875 -40.984375 C 12.703125 -38.835938 11.523438 -35.40625 11.390625 -30.6875 C 11.242188 -26.820312 11.242188 -22.863281 11.390625 -18.8125 C 11.523438 -14.09375 12.703125 -10.660156 14.921875 -8.515625 C 17.140625 -6.367188 20.15625 -5.296875 23.96875 -5.296875 C 27.226562 -5.296875 29.953125 -5.976562 32.140625 -7.34375 C 34.335938 -8.71875 35.832031 -11.242188 36.625 -14.921875 C 36.769531 -15.535156 36.992188 -15.957031 37.296875 -16.1875 C 37.609375 -16.425781 37.976562 -16.546875 38.40625 -16.546875 L 42.296875 -16.546875 C 42.710938 -16.546875 43.070312 -16.414062 43.375 -16.15625 C 43.6875 -15.894531 43.820312 -15.554688 43.78125 -15.140625 C 43.6875 -13.148438 43.210938 -11.210938 42.359375 -9.328125 C 41.515625 -7.441406 40.273438 -5.742188 38.640625 -4.234375 C 37.015625 -2.734375 34.976562 -1.535156 32.53125 -0.640625 C 30.082031 0.253906 27.226562 0.703125 23.96875 0.703125 Z M 23.96875 0.703125 "/>
			</g>
		</g>
		<g style="fill:#003f5c;fill-opacity:1;">
			<g transform="translate(376.517494, 216.150966)">
				<path style="stroke:none" d="M 7.78125 0 C 7.257812 0 6.859375 -0.148438 6.578125 -0.453125 C 6.296875 -0.765625 6.15625 -1.15625 6.15625 -1.625 L 6.15625 -47.8125 C 6.15625 -48.320312 6.296875 -48.726562 6.578125 -49.03125 C 6.859375 -49.34375 7.257812 -49.5 7.78125 -49.5 L 11.3125 -49.5 C 11.832031 -49.5 12.242188 -49.34375 12.546875 -49.03125 C 12.859375 -48.726562 13.015625 -48.320312 13.015625 -47.8125 L 13.015625 -30.265625 L 31.890625 -48.375 C 32.078125 -48.5625 32.394531 -48.796875 32.84375 -49.078125 C 33.289062 -49.359375 33.894531 -49.5 34.65625 -49.5 L 38.46875 -49.5 C 38.84375 -49.5 39.171875 -49.359375 39.453125 -49.078125 C 39.742188 -48.796875 39.890625 -48.46875 39.890625 -48.09375 C 39.890625 -47.707031 39.796875 -47.398438 39.609375 -47.171875 L 17.75 -25.8125 L 41.015625 -2.40625 C 41.253906 -2.125 41.375 -1.796875 41.375 -1.421875 C 41.375 -1.035156 41.226562 -0.703125 40.9375 -0.421875 C 40.65625 -0.140625 40.328125 0 39.953125 0 L 36 0 C 35.195312 0 34.582031 -0.148438 34.15625 -0.453125 C 33.726562 -0.765625 33.421875 -1.015625 33.234375 -1.203125 L 13.015625 -21.078125 L 13.015625 -1.625 C 13.015625 -1.15625 12.859375 -0.765625 12.546875 -0.453125 C 12.242188 -0.148438 11.832031 0 11.3125 0 Z M 7.78125 0 "/>
			</g>
		</g>
		<g style="fill:#003f5c;fill-opacity:1;">
			<g transform="translate(425.312325, 216.150966)">
				<path style="stroke:none" d="M 7.78125 0 C 7.257812 0 6.859375 -0.148438 6.578125 -0.453125 C 6.296875 -0.765625 6.15625 -1.15625 6.15625 -1.625 L 6.15625 -47.8125 C 6.15625 -48.320312 6.296875 -48.726562 6.578125 -49.03125 C 6.859375 -49.34375 7.257812 -49.5 7.78125 -49.5 L 11.390625 -49.5 C 11.898438 -49.5 12.304688 -49.34375 12.609375 -49.03125 C 12.921875 -48.726562 13.078125 -48.320312 13.078125 -47.8125 L 13.078125 -28.28125 L 37.40625 -28.28125 L 37.40625 -47.8125 C 37.40625 -48.320312 37.554688 -48.726562 37.859375 -49.03125 C 38.171875 -49.34375 38.5625 -49.5 39.03125 -49.5 L 42.640625 -49.5 C 43.160156 -49.5 43.570312 -49.34375 43.875 -49.03125 C 44.1875 -48.726562 44.34375 -48.320312 44.34375 -47.8125 L 44.34375 -1.625 C 44.34375 -1.15625 44.1875 -0.765625 43.875 -0.453125 C 43.570312 -0.148438 43.160156 0 42.640625 0 L 39.03125 0 C 38.5625 0 38.171875 -0.148438 37.859375 -0.453125 C 37.554688 -0.765625 37.40625 -1.15625 37.40625 -1.625 L 37.40625 -21.921875 L 13.078125 -21.921875 L 13.078125 -1.625 C 13.078125 -1.15625 12.921875 -0.765625 12.609375 -0.453125 C 12.304688 -0.148438 11.898438 0 11.390625 0 Z M 7.78125 0 "/>
			</g>
		</g>
		<g style="fill:#003f5c;fill-opacity:1;">
			<g transform="translate(482.098097, 216.150966)">
				<path style="stroke:none" d="M 23.96875 0.703125 C 19.914062 0.703125 16.453125 0.0078125 13.578125 -1.375 C 10.703125 -2.769531 8.484375 -4.914062 6.921875 -7.8125 C 5.367188 -10.707031 4.5 -14.347656 4.3125 -18.734375 C 4.269531 -20.816406 4.25 -22.8125 4.25 -24.71875 C 4.25 -26.625 4.269531 -28.613281 4.3125 -30.6875 C 4.5 -35.03125 5.40625 -38.648438 7.03125 -41.546875 C 8.65625 -44.441406 10.914062 -46.609375 13.8125 -48.046875 C 16.71875 -49.484375 20.101562 -50.203125 23.96875 -50.203125 C 27.789062 -50.203125 31.148438 -49.484375 34.046875 -48.046875 C 36.953125 -46.609375 39.226562 -44.441406 40.875 -41.546875 C 42.519531 -38.648438 43.414062 -35.03125 43.5625 -30.6875 C 43.65625 -28.613281 43.703125 -26.625 43.703125 -24.71875 C 43.703125 -22.8125 43.65625 -20.816406 43.5625 -18.734375 C 43.414062 -14.347656 42.550781 -10.707031 40.96875 -7.8125 C 39.394531 -4.914062 37.171875 -2.769531 34.296875 -1.375 C 31.421875 0.0078125 27.976562 0.703125 23.96875 0.703125 Z M 23.96875 -5.296875 C 27.550781 -5.296875 30.484375 -6.378906 32.765625 -8.546875 C 35.054688 -10.722656 36.296875 -14.238281 36.484375 -19.09375 C 36.578125 -21.21875 36.625 -23.113281 36.625 -24.78125 C 36.625 -26.457031 36.578125 -28.332031 36.484375 -30.40625 C 36.390625 -33.65625 35.789062 -36.296875 34.6875 -38.328125 C 33.582031 -40.359375 32.109375 -41.84375 30.265625 -42.78125 C 28.429688 -43.726562 26.332031 -44.203125 23.96875 -44.203125 C 21.613281 -44.203125 19.515625 -43.726562 17.671875 -42.78125 C 15.835938 -41.84375 14.363281 -40.359375 13.25 -38.328125 C 12.144531 -36.296875 11.523438 -33.65625 11.390625 -30.40625 C 11.335938 -28.332031 11.3125 -26.457031 11.3125 -24.78125 C 11.3125 -23.113281 11.335938 -21.21875 11.390625 -19.09375 C 11.578125 -14.238281 12.820312 -10.722656 15.125 -8.546875 C 17.4375 -6.378906 20.382812 -5.296875 23.96875 -5.296875 Z M 23.96875 -5.296875 "/>
			</g>
		</g>
		<g style="fill:#003f5c;fill-opacity:1;">
			<g transform="translate(536.267387, 216.150966)">
				<path style="stroke:none" d="M 24.828125 0.703125 C 20.859375 0.703125 17.445312 0 14.59375 -1.40625 C 11.75 -2.820312 9.5625 -4.976562 8.03125 -7.875 C 6.5 -10.78125 5.734375 -14.519531 5.734375 -19.09375 L 5.734375 -47.8125 C 5.734375 -48.320312 5.875 -48.726562 6.15625 -49.03125 C 6.4375 -49.34375 6.835938 -49.5 7.359375 -49.5 L 10.96875 -49.5 C 11.476562 -49.5 11.882812 -49.34375 12.1875 -49.03125 C 12.5 -48.726562 12.65625 -48.320312 12.65625 -47.8125 L 12.65625 -18.953125 C 12.65625 -14.328125 13.738281 -10.90625 15.90625 -8.6875 C 18.082031 -6.476562 21.054688 -5.375 24.828125 -5.375 C 28.546875 -5.375 31.5 -6.476562 33.6875 -8.6875 C 35.882812 -10.90625 36.984375 -14.328125 36.984375 -18.953125 L 36.984375 -47.8125 C 36.984375 -48.320312 37.132812 -48.726562 37.4375 -49.03125 C 37.75 -49.34375 38.140625 -49.5 38.609375 -49.5 L 42.296875 -49.5 C 42.765625 -49.5 43.148438 -49.34375 43.453125 -49.03125 C 43.765625 -48.726562 43.921875 -48.320312 43.921875 -47.8125 L 43.921875 -19.09375 C 43.921875 -14.519531 43.148438 -10.78125 41.609375 -7.875 C 40.078125 -4.976562 37.894531 -2.820312 35.0625 -1.40625 C 32.238281 0 28.828125 0.703125 24.828125 0.703125 Z M 24.828125 0.703125 "/>
			</g>
		</g>
		<g style="fill:#003f5c;fill-opacity:1;">
			<g transform="translate(592.133826, 216.150966)">
				<path style="stroke:none" d="M 22.0625 0.703125 C 17.957031 0.703125 14.515625 0.0664062 11.734375 -1.203125 C 8.953125 -2.472656 6.816406 -4.109375 5.328125 -6.109375 C 3.847656 -8.117188 3.0625 -10.234375 2.96875 -12.453125 C 2.96875 -12.828125 3.117188 -13.164062 3.421875 -13.46875 C 3.734375 -13.78125 4.101562 -13.9375 4.53125 -13.9375 L 8.125 -13.9375 C 8.695312 -13.9375 9.125 -13.789062 9.40625 -13.5 C 9.6875 -13.21875 9.875 -12.890625 9.96875 -12.515625 C 10.25 -11.378906 10.835938 -10.257812 11.734375 -9.15625 C 12.628906 -8.050781 13.914062 -7.128906 15.59375 -6.390625 C 17.269531 -5.660156 19.425781 -5.296875 22.0625 -5.296875 C 26.113281 -5.296875 29.09375 -6.015625 31 -7.453125 C 32.914062 -8.898438 33.875 -10.820312 33.875 -13.21875 C 33.875 -14.875 33.363281 -16.207031 32.34375 -17.21875 C 31.332031 -18.226562 29.789062 -19.132812 27.71875 -19.9375 C 25.644531 -20.738281 22.957031 -21.613281 19.65625 -22.5625 C 16.21875 -23.550781 13.363281 -24.632812 11.09375 -25.8125 C 8.832031 -26.988281 7.148438 -28.445312 6.046875 -30.1875 C 4.941406 -31.9375 4.390625 -34.15625 4.390625 -36.84375 C 4.390625 -39.382812 5.070312 -41.65625 6.4375 -43.65625 C 7.800781 -45.664062 9.78125 -47.257812 12.375 -48.4375 C 14.96875 -49.613281 18.078125 -50.203125 21.703125 -50.203125 C 24.628906 -50.203125 27.1875 -49.8125 29.375 -49.03125 C 31.570312 -48.257812 33.398438 -47.222656 34.859375 -45.921875 C 36.328125 -44.628906 37.4375 -43.238281 38.1875 -41.75 C 38.9375 -40.269531 39.335938 -38.820312 39.390625 -37.40625 C 39.390625 -37.082031 39.269531 -36.765625 39.03125 -36.453125 C 38.800781 -36.148438 38.425781 -36 37.90625 -36 L 34.15625 -36 C 33.820312 -36 33.476562 -36.09375 33.125 -36.28125 C 32.769531 -36.46875 32.5 -36.820312 32.3125 -37.34375 C 32.03125 -39.269531 30.945312 -40.894531 29.0625 -42.21875 C 27.175781 -43.539062 24.722656 -44.203125 21.703125 -44.203125 C 18.640625 -44.203125 16.15625 -43.609375 14.25 -42.421875 C 12.34375 -41.242188 11.390625 -39.410156 11.390625 -36.921875 C 11.390625 -35.316406 11.835938 -33.984375 12.734375 -32.921875 C 13.628906 -31.859375 15.039062 -30.925781 16.96875 -30.125 C 18.90625 -29.320312 21.429688 -28.472656 24.546875 -27.578125 C 28.316406 -26.546875 31.398438 -25.453125 33.796875 -24.296875 C 36.203125 -23.140625 37.984375 -21.695312 39.140625 -19.96875 C 40.296875 -18.25 40.875 -16.046875 40.875 -13.359375 C 40.875 -10.390625 40.09375 -7.851562 38.53125 -5.75 C 36.976562 -3.65625 34.800781 -2.054688 32 -0.953125 C 29.195312 0.148438 25.882812 0.703125 22.0625 0.703125 Z M 22.0625 0.703125 "/>
			</g>
		</g>
		<g style="fill:#003f5c;fill-opacity:1;">
			<g transform="translate(642.413685, 216.150966)">
				<path style="stroke:none" d="M 7.78125 0 C 7.257812 0 6.859375 -0.148438 6.578125 -0.453125 C 6.296875 -0.765625 6.15625 -1.15625 6.15625 -1.625 L 6.15625 -47.8125 C 6.15625 -48.320312 6.296875 -48.726562 6.578125 -49.03125 C 6.859375 -49.34375 7.257812 -49.5 7.78125 -49.5 L 36.984375 -49.5 C 37.503906 -49.5 37.90625 -49.34375 38.1875 -49.03125 C 38.46875 -48.726562 38.609375 -48.320312 38.609375 -47.8125 L 38.609375 -45.125 C 38.609375 -44.601562 38.46875 -44.195312 38.1875 -43.90625 C 37.90625 -43.625 37.503906 -43.484375 36.984375 -43.484375 L 12.9375 -43.484375 L 12.9375 -28 L 35.4375 -28 C 35.945312 -28 36.34375 -27.84375 36.625 -27.53125 C 36.914062 -27.226562 37.0625 -26.820312 37.0625 -26.3125 L 37.0625 -23.6875 C 37.0625 -23.21875 36.914062 -22.828125 36.625 -22.515625 C 36.34375 -22.210938 35.945312 -22.0625 35.4375 -22.0625 L 12.9375 -22.0625 L 12.9375 -6.015625 L 37.546875 -6.015625 C 38.066406 -6.015625 38.46875 -5.867188 38.75 -5.578125 C 39.03125 -5.296875 39.171875 -4.898438 39.171875 -4.390625 L 39.171875 -1.625 C 39.171875 -1.15625 39.03125 -0.765625 38.75 -0.453125 C 38.46875 -0.148438 38.066406 0 37.546875 0 Z M 7.78125 0 "/>
			</g>
		</g>
	</g>
</svg>