<svg version="1.1" id="Layer_1" xmlns="http://www.w3.org/2000/svg" xmlns:xlink="http://www.w3.org/1999/xlink" x="0px" y="0px" xml:space="preserve">

<path fill="#003F5C" opacity="1.000000" stroke="none" 
	d="
M100.928406,190.000275 
	C81.108673,190.432129 63.447136,185.431564 47.166176,173.606812 
	C50.801132,169.256119 54.136761,165.004898 57.834301,161.096024 
	C58.441704,160.453888 60.867764,160.896912 62.067478,161.548645 
	C73.926620,167.991013 86.422722,172.378983 100.033943,171.907364 
	C115.540787,171.370010 129.572739,166.094360 141.857452,156.574448 
	C156.451767,145.264740 165.214691,130.163452 167.599152,112.072098 
	C170.216843,92.211128 165.720062,73.841675 152.585693,58.011490 
	C137.806671,40.199093 118.627266,31.468771 95.886826,32.245041 
	C77.609619,32.868950 61.575039,40.191010 48.607574,53.671471 
	C32.788822,70.116028 27.162674,89.824432 29.383718,112.896835 
	C23.976316,112.896835 18.868084,113.072479 13.792456,112.744118 
	C12.812983,112.680763 11.306300,110.729225 11.147408,109.505318 
	C8.140736,86.345695 15.155560,65.902725 28.995550,47.696899 
	C41.607441,31.106583 58.512066,20.590460 78.797195,16.114613 
	C105.748634,10.167870 130.654282,15.369722 152.597748,32.252640 
	C172.370712,47.465614 183.279984,67.806564 186.117981,92.686646 
	C189.570023,122.949554 179.025085,147.893661 157.159393,168.058792 
	C144.377716,179.846390 128.904739,187.130951 111.294937,189.046600 
	C108.005432,189.404449 104.707436,189.684265 100.928406,190.000275 
z"/>
<path fill="#003F5C" opacity="1.000000" stroke="none" 
	d="
M116.346085,121.385925 
	C112.330315,126.047882 108.600357,130.495209 104.667618,134.755325 
	C101.592812,138.086105 98.426628,137.711838 95.147522,134.690033 
	C87.732246,127.856583 80.187599,121.163506 72.424530,114.169128 
	C67.607216,119.346802 63.063465,124.155670 58.604408,129.041840 
	C52.910950,135.280640 47.272327,141.569733 41.637547,147.861755 
	C39.191021,150.593658 36.575024,150.783066 33.781788,148.493683 
	C31.866831,146.924149 30.127174,145.121826 28.120167,143.688156 
	C25.452526,141.782562 25.433578,139.742722 27.338524,137.404282 
	C30.785450,133.172958 34.187962,128.901871 37.747711,124.766777 
	C44.551891,116.862846 51.446747,109.036873 58.317863,101.190727 
	C60.940258,98.196213 63.503216,95.140793 66.266922,92.280960 
	C70.383461,88.021240 72.240501,88.111320 76.666161,92.161469 
	C83.882851,98.765823 91.155632,105.308884 99.053963,112.466110 
	C107.640137,102.912628 115.972435,93.641640 124.782112,83.839485 
	C122.082581,82.625443 119.941589,82.063583 118.330971,80.816650 
	C116.938316,79.738480 115.145973,77.728996 115.347694,76.408913 
	C115.594528,74.793617 117.518242,72.536308 119.092918,72.169083 
	C128.760971,69.914467 138.502197,67.920395 148.290390,66.259987 
	C152.268814,65.585106 154.181198,68.430962 153.882599,72.110191 
	C153.106812,81.669258 152.193024,91.225815 150.923996,100.728592 
	C150.679108,102.562355 148.644043,105.440544 147.299286,105.519173 
	C145.617325,105.617508 143.580872,103.526779 142.101013,101.991943 
	C140.898972,100.745232 140.292130,98.924622 138.987869,96.579002 
	C131.222107,105.060410 123.883316,113.075516 116.346085,121.385925 
z"/>
</svg>